<svg width="559" height="559" viewBox="0 0 559 559" fill="none" xmlns="http://www.w3.org/2000/svg">
<g clip-path="url(#clip0_28280_7663)">
<path d="M72.711 510.743L218.52 413.54L261.515 349.059C265.173 343.567 267.127 337.126 267.127 330.52V267.731L-0.199219 49.0222L121.307 243.428L218.51 292.034L121.307 340.641L72.7001 510.754L72.711 510.743Z" fill="#F0F0E5"/>
<path d="M-0.199219 49.0222L194.217 97.6181L279.508 243.428L-0.199219 49.0222Z" fill="#F0F0E5"/>
<path d="M485.907 510.743L340.097 413.54L297.102 349.059C293.445 343.567 291.49 337.125 291.49 330.52V267.731L558.806 49.022L437.3 243.427L340.021 292.034L437.3 340.641L485.907 510.754V510.743Z" fill="#F0F0E5"/>
<path d="M558.803 49.022L364.322 97.6179L279.445 243.427L558.803 49.022Z" fill="#F0F0E5"/>
<path d="M291.49 267.732L340.097 413.541L297.102 349.06C293.445 343.568 291.49 337.126 291.49 330.521V267.732Z" fill="#D5D5D5"/>
<path d="M267.113 267.732L218.506 413.541L261.501 349.06C265.158 343.568 267.113 337.126 267.113 330.521V267.732Z" fill="#D5D5D5"/>
</g>
<defs>
<clipPath id="clip0_28280_7663">
<rect width="559" height="559" fill="white"/>
</clipPath>
</defs>
</svg>
