<svg width="40" height="40" viewBox="0 0 40 40" fill="none" xmlns="http://www.w3.org/2000/svg">
<path d="M4.16992 19.9974C4.16992 12.5335 4.16992 8.80155 6.48865 6.4828C8.8074 4.16406 12.5394 4.16406 20.0032 4.16406C27.4671 4.16406 31.1991 4.16406 33.5179 6.4828C35.8366 8.80155 35.8366 12.5335 35.8366 19.9974C35.8366 27.4612 35.8366 31.1932 33.5179 33.512C31.1991 35.8308 27.4671 35.8308 20.0032 35.8308C12.5394 35.8308 8.8074 35.8308 6.48865 33.512C4.16992 31.1932 4.16992 27.4612 4.16992 19.9974Z" stroke="#F0F0E5" stroke-width="2.30769" stroke-linejoin="round"/>
<path d="M27.5 20C27.5 24.1422 24.1422 27.5 20 27.5C15.8578 27.5 12.5 24.1422 12.5 20C12.5 15.8578 15.8578 12.5 20 12.5C24.1422 12.5 27.5 15.8578 27.5 20Z" stroke="#F0F0E5" stroke-width="2.30769"/>
<path d="M29.1771 10.8359H29.1641" stroke="#F0F0E5" stroke-width="2.30769" stroke-linecap="round" stroke-linejoin="round"/>
</svg>
