<svg width="40" height="40" viewBox="0 0 40 40" fill="none" xmlns="http://www.w3.org/2000/svg">
<path d="M11.6699 16.6641V28.3308" stroke="#F0F0E5" stroke-width="2.30769" stroke-linecap="round" stroke-linejoin="round"/>
<path d="M18.3301 21.6641V28.3308M18.3301 21.6641C18.3301 18.9027 20.5685 16.6641 23.3301 16.6641C26.0915 16.6641 28.3301 18.9027 28.3301 21.6641V28.3308M18.3301 21.6641V16.6641" stroke="#F0F0E5" stroke-width="2.30769" stroke-linecap="round" stroke-linejoin="round"/>
<path d="M11.677 11.6641H11.6641" stroke="#F0F0E5" stroke-width="2.30769" stroke-linecap="round" stroke-linejoin="round"/>
<path d="M4.16992 19.9974C4.16992 12.5335 4.16992 8.80155 6.48865 6.4828C8.8074 4.16406 12.5394 4.16406 20.0032 4.16406C27.4671 4.16406 31.1991 4.16406 33.5179 6.4828C35.8366 8.80155 35.8366 12.5335 35.8366 19.9974C35.8366 27.4612 35.8366 31.1932 33.5179 33.512C31.1991 35.8308 27.4671 35.8308 20.0032 35.8308C12.5394 35.8308 8.8074 35.8308 6.48865 33.512C4.16992 31.1932 4.16992 27.4612 4.16992 19.9974Z" stroke="#F0F0E5" stroke-width="2.30769" stroke-linejoin="round"/>
</svg>
