<svg width="475" height="97" viewBox="0 0 475 97" fill="none" xmlns="http://www.w3.org/2000/svg">
<path d="M419.088 46.7679L390.948 0.671875H415.738L431.282 25.9979L446.022 0.671875H471.08L442.94 45.1599L474.028 95.8119H449.104L431.416 66.8679L413.058 95.8119H388L419.088 46.7679Z" fill="white"/>
<path d="M304.193 0.671875H339.033C350.288 0.671875 358.328 2.99454 363.152 7.63987C367.976 12.1959 370.388 18.9405 370.388 27.8739C370.388 33.5912 369.406 38.4152 367.44 42.3459C365.564 46.2765 362.482 49.3139 358.194 51.4579C361.321 53.5125 363.733 56.4159 365.431 60.1679C367.128 63.8305 368.334 68.5205 369.048 74.2379L371.728 95.8119H362.349L359.668 74.2379C359.222 70.7539 358.552 67.8059 357.659 65.3939C356.765 62.9819 355.47 61.0612 353.772 59.6319C352.075 58.1132 349.931 56.9965 347.34 56.2819C344.839 55.4779 341.757 55.0312 338.094 54.9419H313.305V95.8119H304.193V0.671875ZM338.228 46.3659C346.536 46.3659 352.388 44.9365 355.783 42.0779C359.177 39.1299 360.874 34.3059 360.874 27.6059C360.874 20.9952 359.177 16.3052 355.783 13.5359C352.388 10.6772 346.536 9.24788 338.228 9.24788H313.305V46.2319L338.228 46.3659Z" fill="white"/>
<path d="M207.506 48.24C207.506 32.6067 211.258 20.6807 218.762 12.462C226.356 4.154 237.165 0 251.19 0C265.216 0 275.98 4.154 283.484 12.462C291.078 20.6807 294.874 32.6067 294.874 48.24C294.874 63.8733 291.078 75.844 283.484 84.152C275.98 92.3707 265.216 96.48 251.19 96.48C237.165 96.48 226.356 92.3707 218.762 84.152C211.258 75.844 207.506 63.8733 207.506 48.24ZM217.02 48.24C217.02 61.2827 219.834 71.154 225.462 77.854C231.18 84.554 239.756 87.904 251.19 87.904C262.625 87.904 271.156 84.554 276.784 77.854C282.502 71.154 285.36 61.2827 285.36 48.24C285.36 35.1973 282.502 25.3707 276.784 18.76C271.156 12.06 262.67 8.71 251.324 8.71C239.89 8.71 231.314 12.06 225.596 18.76C219.879 25.3707 217.02 35.1973 217.02 48.24Z" fill="white"/>
<path d="M163.561 9.64988H132.741V0.671875H203.493V9.64988H172.673V95.8119H163.561V9.64988Z" fill="white"/>
<path d="M110.864 0.671875H119.976V95.8119H110.864V0.671875Z" fill="white"/>
<path d="M89.7433 0.671875H98.8553V95.8119H89.7433V0.671875Z" fill="white"/>
<path d="M0 0.671875H9.648L38.324 81.7419L67 0.671875H76.648L42.746 95.8119H33.902L0 0.671875Z" fill="white"/>
</svg>
