<svg width="325" height="79" viewBox="0 0 325 79" fill="none" xmlns="http://www.w3.org/2000/svg">
<path d="M0.702698 0.315886H5.30218L18.9729 38.9643L32.6435 0.315886H37.243L21.081 45.6719H16.8648L0.702698 0.315886ZM59.4564 0.315886H63.8003V45.6719H59.4564V0.315886ZM90.711 0.315886H95.0549V45.6719H90.711V0.315886ZM131.803 4.59596H117.111V0.315886H150.84V4.59596H136.147V45.6719H131.803V4.59596ZM168.724 22.9939C168.724 15.541 170.513 9.85555 174.09 5.93747C177.71 1.97681 182.863 -0.00352254 189.549 -0.00352254C196.236 -0.00352254 201.368 1.97681 204.945 5.93747C208.565 9.85555 210.375 15.541 210.375 22.9939C210.375 30.4467 208.565 36.1535 204.945 40.1142C201.368 44.0322 196.236 45.9913 189.549 45.9913C182.863 45.9913 177.71 44.0322 174.09 40.1142C170.513 36.1535 168.724 30.4467 168.724 22.9939ZM173.26 22.9939C173.26 29.2117 174.601 33.9176 177.284 37.1117C180.01 40.3058 184.098 41.9029 189.549 41.9029C195.001 41.9029 199.068 40.3058 201.751 37.1117C204.476 33.9176 205.839 29.2117 205.839 22.9939C205.839 16.7761 204.476 12.0914 201.751 8.93991C199.068 5.74583 195.022 4.14879 189.613 4.14879C184.162 4.14879 180.074 5.74583 177.348 8.93991C174.622 12.0914 173.26 16.7761 173.26 22.9939ZM235.753 0.315886H252.363C257.729 0.315886 261.562 1.42317 263.861 3.63773C266.161 5.80971 267.311 9.02509 267.311 13.2839C267.311 16.0095 266.842 18.3092 265.905 20.1831C265.011 22.0569 263.542 23.5049 261.498 24.527C262.988 25.5066 264.138 26.8907 264.947 28.6794C265.756 30.4254 266.331 32.6613 266.672 35.3869L267.95 45.6719H263.478L262.2 35.3869C261.987 33.726 261.668 32.3206 261.242 31.1707C260.816 30.0209 260.199 29.1052 259.39 28.4238C258.58 27.6998 257.558 27.1675 256.323 26.8268C255.131 26.4435 253.661 26.2306 251.915 26.188H240.097V45.6719H235.753V0.315886ZM251.979 22.0995C255.94 22.0995 258.729 21.4181 260.348 20.0553C261.966 18.6499 262.775 16.3502 262.775 13.1561C262.775 10.0046 261.966 7.76875 260.348 6.44853C258.729 5.08572 255.94 4.40431 251.979 4.40431H240.097V22.0357L251.979 22.0995ZM298.625 22.2912L285.21 0.315886H297.028L304.438 12.3895L311.465 0.315886H323.411L309.996 21.5246L324.816 45.6719H312.934L304.502 31.8734L295.75 45.6719H283.804L298.625 22.2912Z" fill="white"/>
<path d="M76.2416 74.6719V61.5904H77.7481V74.6719H76.2416ZM80.7946 74.6719V64.6415H81.8816L82.0151 66.2242H82.1486C82.9876 64.8703 84.0555 64.4127 85.4094 64.4127C86.7442 64.4127 87.774 64.9085 88.1744 66.2242H88.2888C89.0707 64.9085 90.1957 64.4127 91.5497 64.4127C93.3422 64.4127 94.6007 65.2517 94.6007 67.6354V74.6719H93.2277V67.7879C93.2277 66.0335 92.2934 65.6331 91.1301 65.6331C89.6809 65.6331 88.3842 66.7963 88.3842 68.7414V74.6719H87.0112V67.7879C87.0112 66.0335 86.1149 65.6331 84.9708 65.6331C83.5025 65.6331 82.1676 66.7963 82.1676 68.7414V74.6719H80.7946ZM97.1822 74.6719V64.6415H98.2691L98.4026 66.2242H98.5361C99.3752 64.8703 100.443 64.4127 101.797 64.4127C103.132 64.4127 104.162 64.9085 104.562 66.2242H104.676C105.458 64.9085 106.583 64.4127 107.937 64.4127C109.73 64.4127 110.988 65.2517 110.988 67.6354V74.6719H109.615V67.7879C109.615 66.0335 108.681 65.6331 107.518 65.6331C106.068 65.6331 104.772 66.7963 104.772 68.7414V74.6719H103.399V67.7879C103.399 66.0335 102.502 65.6331 101.358 65.6331C99.89 65.6331 98.5552 66.7963 98.5552 68.7414V74.6719H97.1822ZM117.441 74.9007C114.561 74.9007 112.998 73.2608 112.998 69.6567C112.998 66.0526 114.561 64.4127 117.555 64.4127C120.339 64.4127 121.808 66.1098 121.808 69.1418V70.019H114.428C114.447 72.6887 115.515 73.7566 117.498 73.7566C119.443 73.7566 120.358 72.6505 120.397 71.2966H121.731C121.693 73.2798 120.339 74.9007 117.441 74.9007ZM114.428 68.9321H120.377C120.377 66.434 119.176 65.5759 117.479 65.5759C115.591 65.5759 114.561 66.6056 114.428 68.9321ZM123.886 74.6719V64.6415H124.992L125.107 66.3196H125.24C125.507 65.4043 126.118 64.4127 127.529 64.4127C127.891 64.4127 128.215 64.4889 128.368 64.5462V65.8047H127.777C125.984 65.8047 125.259 67.2349 125.259 68.8939V74.6719H123.886ZM133.276 74.9007C130.606 74.9007 129.233 73.7947 129.233 71.8878C129.233 71.7924 129.233 71.6589 129.252 71.5636H130.606C130.587 71.6971 130.587 71.7734 130.587 71.8496C130.606 73.337 131.731 73.7566 133.371 73.7566C134.763 73.7566 135.869 73.1654 135.869 72.0403C135.869 70.6483 134.382 70.4195 132.894 69.9809C131.274 69.5232 129.557 69.0465 129.557 67.1205C129.557 65.4424 130.968 64.4127 133.352 64.4127C136.022 64.4127 137.051 65.7475 137.051 67.1586C137.051 67.273 137.032 67.4065 137.032 67.5019H135.679V67.254C135.679 66.4912 135.24 65.5568 133.276 65.5568C131.712 65.5568 130.949 66.1098 130.949 67.0633C130.949 68.1884 132.113 68.3409 133.447 68.7795C135.202 69.3325 137.28 69.6567 137.28 71.8306C137.28 73.89 135.583 74.9007 133.276 74.9007ZM139.38 62.582V60.8849H140.753V62.582H139.38ZM139.38 74.6719V64.6415H140.753V74.6719H139.38ZM146.129 74.6719L142.41 64.6415H143.859L145.785 69.8855C146.052 70.6292 146.51 72.0403 146.777 72.8794H146.872C147.139 72.0594 147.597 70.6674 147.883 69.8855L149.79 64.6415H151.182L147.463 74.6719H146.129ZM156.585 74.9007C153.705 74.9007 152.142 73.2608 152.142 69.6567C152.142 66.0526 153.705 64.4127 156.699 64.4127C159.483 64.4127 160.952 66.1098 160.952 69.1418V70.019H153.572C153.591 72.6887 154.659 73.7566 156.642 73.7566C158.587 73.7566 159.502 72.6505 159.54 71.2966H160.875C160.837 73.2798 159.483 74.9007 156.585 74.9007ZM153.572 68.9321H159.521C159.521 66.434 158.32 65.5759 156.623 65.5759C154.735 65.5759 153.705 66.6056 153.572 68.9321ZM171.628 74.9007C170.255 74.9007 169.187 74.3668 168.482 73.2035H168.348L168.196 74.6719H167.109V60.8849H168.482V65.9382H168.615C169.302 64.8322 170.446 64.4127 171.666 64.4127C174.069 64.4127 175.594 66.0335 175.594 69.5613C175.594 73.318 174.145 74.9007 171.628 74.9007ZM171.399 73.6993C173.077 73.6993 174.164 72.7268 174.164 69.9046V69.4279C174.164 66.7391 173.211 65.614 171.304 65.614C169.931 65.614 168.482 66.3387 168.482 69.4851V69.8283C168.482 72.3264 169.34 73.6993 171.399 73.6993ZM178.298 78.1425C177.821 78.1425 177.439 78.0662 177.211 78.028V76.9983H177.954C178.946 76.9983 179.842 76.6551 180.491 74.6719L176.6 64.6415H178.05L180.109 69.9809C180.395 70.7246 180.872 72.1357 181.158 72.9938H181.272C181.501 72.1547 181.959 70.7627 182.207 69.9999L183.98 64.6415H185.372L181.94 74.5003C181.158 76.7313 180.338 78.1425 178.298 78.1425ZM191.513 74.6719V61.5904H196.223C200.399 61.5904 202.783 63.5546 202.783 68.1312C202.783 72.6887 200.399 74.6719 196.223 74.6719H191.513ZM193.02 73.3752H196.166C199.255 73.3752 201.219 71.9831 201.219 68.36V67.9595C201.219 64.241 199.293 62.8871 196.166 62.8871H193.02V73.3752ZM209.043 74.9007C206.164 74.9007 204.6 73.2608 204.6 69.6567C204.6 66.0526 206.164 64.4127 209.158 64.4127C211.942 64.4127 213.41 66.1098 213.41 69.1418V70.019H206.031C206.05 72.6887 207.118 73.7566 209.101 73.7566C211.046 73.7566 211.961 72.6505 211.999 71.2966H213.334C213.296 73.2798 211.942 74.9007 209.043 74.9007ZM206.031 68.9321H211.98C211.98 66.434 210.779 65.5759 209.082 65.5759C207.194 65.5759 206.164 66.6056 206.031 68.9321ZM218.826 74.9007C216.157 74.9007 214.784 73.7947 214.784 71.8878C214.784 71.7924 214.784 71.6589 214.803 71.5636H216.157C216.138 71.6971 216.138 71.7734 216.138 71.8496C216.157 73.337 217.282 73.7566 218.922 73.7566C220.314 73.7566 221.42 73.1654 221.42 72.0403C221.42 70.6483 219.932 70.4195 218.445 69.9809C216.824 69.5232 215.108 69.0465 215.108 67.1205C215.108 65.4424 216.519 64.4127 218.903 64.4127C221.572 64.4127 222.602 65.7475 222.602 67.1586C222.602 67.273 222.583 67.4065 222.583 67.5019H221.229V67.254C221.229 66.4912 220.79 65.5568 218.826 65.5568C217.263 65.5568 216.5 66.1098 216.5 67.0633C216.5 68.1884 217.663 68.3409 218.998 68.7795C220.752 69.3325 222.831 69.6567 222.831 71.8306C222.831 73.89 221.134 74.9007 218.826 74.9007ZM224.931 62.582V60.8849H226.304V62.582H224.931ZM224.931 74.6719V64.6415H226.304V74.6719H224.931ZM230.706 78.1425C229.238 78.1425 228.018 77.1318 228.018 75.6444C228.018 74.5384 228.685 73.7375 229.6 73.337C228.933 73.051 228.571 72.4408 228.571 71.7924C228.571 70.9153 229.295 70.2478 230.211 70.0571C229.372 69.4851 228.838 68.6079 228.838 67.5972C228.838 65.7666 230.134 64.4127 232.823 64.4127C233.662 64.4127 234.387 64.5462 234.978 64.7941C235.855 64.4699 236.332 63.8025 236.484 63.0397H237.857C237.819 64.1266 237.095 65.1373 235.855 65.3471C236.504 65.9573 236.809 66.7391 236.809 67.5972C236.809 69.4088 235.531 70.7627 232.861 70.7627H231.279C230.535 70.7627 229.982 71.0487 229.982 71.7162C229.982 72.3073 230.535 72.6505 231.317 72.6505H235.245C236.713 72.6505 237.743 73.7756 237.743 75.263C237.743 76.8839 236.446 78.1425 234.616 78.1425H230.706ZM232.823 69.6758C234.578 69.6758 235.436 68.8749 235.436 67.5972C235.436 66.3005 234.578 65.4996 232.823 65.4996C231.088 65.4996 230.23 66.3005 230.23 67.5972C230.23 68.8176 231.088 69.6758 232.823 69.6758ZM231.012 77.0555H234.578C235.569 77.0555 236.351 76.3309 236.351 75.4728C236.351 74.5003 235.703 73.871 234.883 73.871H231.012C230.134 73.871 229.41 74.5765 229.41 75.4728C229.41 76.4453 230.115 77.0555 231.012 77.0555ZM239.288 74.6719V64.6415H240.375L240.509 66.2242H240.642C241.5 64.8703 242.664 64.4127 244.075 64.4127C245.982 64.4127 247.259 65.2517 247.259 67.6735V74.6719H245.886V67.807C245.886 66.0335 244.933 65.6331 243.617 65.6331C242.092 65.6331 240.661 66.7963 240.661 68.7414V74.6719H239.288Z" fill="white"/>
</svg>
