<svg width="325" height="79" viewBox="0 0 325 79" fill="none" xmlns="http://www.w3.org/2000/svg">
<path d="M0.702698 0.315886H5.30218L18.9729 38.9643L32.6435 0.315886H37.243L21.081 45.6719H16.8648L0.702698 0.315886ZM59.4564 0.315886H63.8003V45.6719H59.4564V0.315886ZM90.711 0.315886H95.0549V45.6719H90.711V0.315886ZM131.803 4.59596H117.111V0.315886H150.84V4.59596H136.147V45.6719H131.803V4.59596ZM168.724 22.9939C168.724 15.541 170.513 9.85555 174.09 5.93747C177.71 1.97681 182.863 -0.00352254 189.549 -0.00352254C196.236 -0.00352254 201.368 1.97681 204.945 5.93747C208.565 9.85555 210.375 15.541 210.375 22.9939C210.375 30.4467 208.565 36.1535 204.945 40.1142C201.368 44.0322 196.236 45.9913 189.549 45.9913C182.863 45.9913 177.71 44.0322 174.09 40.1142C170.513 36.1535 168.724 30.4467 168.724 22.9939ZM173.26 22.9939C173.26 29.2117 174.601 33.9176 177.284 37.1117C180.01 40.3058 184.098 41.9029 189.549 41.9029C195.001 41.9029 199.068 40.3058 201.751 37.1117C204.476 33.9176 205.839 29.2117 205.839 22.9939C205.839 16.7761 204.476 12.0914 201.751 8.93991C199.068 5.74583 195.022 4.14879 189.613 4.14879C184.162 4.14879 180.074 5.74583 177.348 8.93991C174.622 12.0914 173.26 16.7761 173.26 22.9939ZM235.753 0.315886H252.363C257.729 0.315886 261.562 1.42317 263.861 3.63773C266.161 5.80971 267.311 9.02509 267.311 13.2839C267.311 16.0095 266.842 18.3092 265.905 20.1831C265.011 22.0569 263.542 23.5049 261.498 24.527C262.988 25.5066 264.138 26.8907 264.947 28.6794C265.756 30.4254 266.331 32.6613 266.672 35.3869L267.95 45.6719H263.478L262.2 35.3869C261.987 33.726 261.668 32.3206 261.242 31.1707C260.816 30.0209 260.199 29.1052 259.39 28.4238C258.58 27.6998 257.558 27.1675 256.323 26.8268C255.131 26.4435 253.661 26.2306 251.915 26.188H240.097V45.6719H235.753V0.315886ZM251.979 22.0995C255.94 22.0995 258.729 21.4181 260.348 20.0553C261.966 18.6499 262.775 16.3502 262.775 13.1561C262.775 10.0046 261.966 7.76875 260.348 6.44853C258.729 5.08572 255.94 4.40431 251.979 4.40431H240.097V22.0357L251.979 22.0995ZM298.625 22.2912L285.21 0.315886H297.028L304.438 12.3895L311.465 0.315886H323.411L309.996 21.5246L324.816 45.6719H312.934L304.502 31.8734L295.75 45.6719H283.804L298.625 22.2912Z" fill="white"/>
<path d="M78.0292 62.582V60.8849H79.4022V62.582H78.0292ZM78.0292 74.6719V64.6415H79.4022V74.6719H78.0292ZM82.0889 74.6719V64.6415H83.1758L83.3093 66.2242H83.4428C84.2818 64.8703 85.3497 64.4127 86.7036 64.4127C88.0385 64.4127 89.0682 64.9085 89.4687 66.2242H89.5831C90.3649 64.9085 91.49 64.4127 92.8439 64.4127C94.6364 64.4127 95.895 65.2517 95.895 67.6354V74.6719H94.522V67.7879C94.522 66.0335 93.5876 65.6331 92.4244 65.6331C90.9751 65.6331 89.6784 66.7963 89.6784 68.7414V74.6719H88.3054V67.7879C88.3054 66.0335 87.4092 65.6331 86.265 65.6331C84.7967 65.6331 83.4619 66.7963 83.4619 68.7414V74.6719H82.0889ZM98.4764 74.6719V64.6415H99.5634L99.6969 66.2242H99.8304C100.669 64.8703 101.737 64.4127 103.091 64.4127C104.426 64.4127 105.456 64.9085 105.856 66.2242H105.971C106.752 64.9085 107.878 64.4127 109.231 64.4127C111.024 64.4127 112.283 65.2517 112.283 67.6354V74.6719H110.91V67.7879C110.91 66.0335 109.975 65.6331 108.812 65.6331C107.363 65.6331 106.066 66.7963 106.066 68.7414V74.6719H104.693V67.7879C104.693 66.0335 103.797 65.6331 102.653 65.6331C101.184 65.6331 99.8494 66.7963 99.8494 68.7414V74.6719H98.4764ZM118.735 74.9007C115.856 74.9007 114.292 73.2608 114.292 69.6567C114.292 66.0526 115.856 64.4127 118.849 64.4127C121.634 64.4127 123.102 66.1098 123.102 69.1418V70.019H115.722C115.741 72.6887 116.809 73.7566 118.792 73.7566C120.737 73.7566 121.653 72.6505 121.691 71.2966H123.026C122.987 73.2798 121.634 74.9007 118.735 74.9007ZM115.722 68.9321H121.672C121.672 66.434 120.47 65.5759 118.773 65.5759C116.885 65.5759 115.856 66.6056 115.722 68.9321ZM125.181 74.6719V64.6415H126.287L126.401 66.3196H126.535C126.802 65.4043 127.412 64.4127 128.823 64.4127C129.185 64.4127 129.509 64.4889 129.662 64.5462V65.8047H129.071C127.278 65.8047 126.554 67.2349 126.554 68.8939V74.6719H125.181ZM134.57 74.9007C131.9 74.9007 130.527 73.7947 130.527 71.8878C130.527 71.7924 130.527 71.6589 130.546 71.5636H131.9C131.881 71.6971 131.881 71.7734 131.881 71.8496C131.9 73.337 133.025 73.7566 134.665 73.7566C136.057 73.7566 137.163 73.1654 137.163 72.0403C137.163 70.6483 135.676 70.4195 134.189 69.9809C132.568 69.5232 130.852 69.0465 130.852 67.1205C130.852 65.4424 132.263 64.4127 134.646 64.4127C137.316 64.4127 138.346 65.7475 138.346 67.1586C138.346 67.273 138.327 67.4065 138.327 67.5019H136.973V67.254C136.973 66.4912 136.534 65.5568 134.57 65.5568C133.006 65.5568 132.244 66.1098 132.244 67.0633C132.244 68.1884 133.407 68.3409 134.742 68.7795C136.496 69.3325 138.575 69.6567 138.575 71.8306C138.575 73.89 136.877 74.9007 134.57 74.9007ZM140.674 62.582V60.8849H142.047V62.582H140.674ZM140.674 74.6719V64.6415H142.047V74.6719H140.674ZM147.423 74.6719L143.704 64.6415H145.154L147.08 69.8855C147.347 70.6292 147.804 72.0403 148.071 72.8794H148.166C148.433 72.0594 148.891 70.6674 149.177 69.8855L151.084 64.6415H152.476L148.758 74.6719H147.423ZM157.879 74.9007C155 74.9007 153.436 73.2608 153.436 69.6567C153.436 66.0526 155 64.4127 157.993 64.4127C160.777 64.4127 162.246 66.1098 162.246 69.1418V70.019H154.866C154.885 72.6887 155.953 73.7566 157.936 73.7566C159.881 73.7566 160.797 72.6505 160.835 71.2966H162.17C162.131 73.2798 160.777 74.9007 157.879 74.9007ZM154.866 68.9321H160.816C160.816 66.434 159.614 65.5759 157.917 65.5759C156.029 65.5759 155 66.6056 154.866 68.9321ZM172.922 74.9007C171.549 74.9007 170.481 74.3668 169.776 73.2035H169.642L169.49 74.6719H168.403V60.8849H169.776V65.9382H169.909C170.596 64.8322 171.74 64.4127 172.96 64.4127C175.363 64.4127 176.889 66.0335 176.889 69.5613C176.889 73.318 175.439 74.9007 172.922 74.9007ZM172.693 73.6993C174.372 73.6993 175.458 72.7268 175.458 69.9046V69.4279C175.458 66.7391 174.505 65.614 172.598 65.614C171.225 65.614 169.776 66.3387 169.776 69.4851V69.8283C169.776 72.3264 170.634 73.6993 172.693 73.6993ZM179.592 78.1425C179.115 78.1425 178.734 78.0662 178.505 78.028V76.9983H179.249C180.24 76.9983 181.136 76.6551 181.785 74.6719L177.895 64.6415H179.344L181.403 69.9809C181.689 70.7246 182.166 72.1357 182.452 72.9938H182.567C182.795 72.1547 183.253 70.7627 183.501 69.9999L185.274 64.6415H186.667L183.234 74.5003C182.452 76.7313 181.632 78.1425 179.592 78.1425ZM195.801 74.9007C193.284 74.9007 191.835 73.318 191.835 69.5613C191.835 66.0335 193.36 64.4127 195.763 64.4127C197.079 64.4127 198.128 64.8322 198.814 65.9382H198.929V60.8849H200.302V74.6719H199.234L199.081 73.2035H198.948C198.242 74.3668 197.079 74.9007 195.801 74.9007ZM196.03 73.6993C198.09 73.6993 198.929 72.3264 198.929 69.8283V69.4851C198.929 66.3387 197.498 65.614 196.125 65.614C194.218 65.614 193.265 66.7391 193.265 69.4279V69.9046C193.265 72.7268 194.352 73.6993 196.03 73.6993ZM206.855 74.9007C203.976 74.9007 202.412 73.2608 202.412 69.6567C202.412 66.0526 203.976 64.4127 206.97 64.4127C209.754 64.4127 211.222 66.1098 211.222 69.1418V70.019H203.842C203.862 72.6887 204.929 73.7566 206.913 73.7566C208.858 73.7566 209.773 72.6505 209.811 71.2966H211.146C211.108 73.2798 209.754 74.9007 206.855 74.9007ZM203.842 68.9321H209.792C209.792 66.434 208.591 65.5759 206.894 65.5759C205.006 65.5759 203.976 66.6056 203.842 68.9321ZM216.638 74.9007C213.968 74.9007 212.595 73.7947 212.595 71.8878C212.595 71.7924 212.595 71.6589 212.615 71.5636H213.968C213.949 71.6971 213.949 71.7734 213.949 71.8496C213.968 73.337 215.094 73.7566 216.734 73.7566C218.126 73.7566 219.232 73.1654 219.232 72.0403C219.232 70.6483 217.744 70.4195 216.257 69.9809C214.636 69.5232 212.92 69.0465 212.92 67.1205C212.92 65.4424 214.331 64.4127 216.714 64.4127C219.384 64.4127 220.414 65.7475 220.414 67.1586C220.414 67.273 220.395 67.4065 220.395 67.5019H219.041V67.254C219.041 66.4912 218.602 65.5568 216.638 65.5568C215.074 65.5568 214.312 66.1098 214.312 67.0633C214.312 68.1884 215.475 68.3409 216.81 68.7795C218.564 69.3325 220.643 69.6567 220.643 71.8306C220.643 73.89 218.946 74.9007 216.638 74.9007ZM222.743 62.582V60.8849H224.116V62.582H222.743ZM222.743 74.6719V64.6415H224.116V74.6719H222.743ZM228.518 78.1425C227.05 78.1425 225.83 77.1318 225.83 75.6444C225.83 74.5384 226.497 73.7375 227.412 73.337C226.745 73.051 226.383 72.4408 226.383 71.7924C226.383 70.9153 227.107 70.2478 228.023 70.0571C227.184 69.4851 226.65 68.6079 226.65 67.5972C226.65 65.7666 227.946 64.4127 230.635 64.4127C231.474 64.4127 232.199 64.5462 232.79 64.7941C233.667 64.4699 234.144 63.8025 234.296 63.0397H235.669C235.631 64.1266 234.907 65.1373 233.667 65.3471C234.315 65.9573 234.621 66.7391 234.621 67.5972C234.621 69.4088 233.343 70.7627 230.673 70.7627H229.09C228.347 70.7627 227.794 71.0487 227.794 71.7162C227.794 72.3073 228.347 72.6505 229.129 72.6505H233.057C234.525 72.6505 235.555 73.7756 235.555 75.263C235.555 76.8839 234.258 78.1425 232.428 78.1425H228.518ZM230.635 69.6758C232.389 69.6758 233.248 68.8749 233.248 67.5972C233.248 66.3005 232.389 65.4996 230.635 65.4996C228.9 65.4996 228.042 66.3005 228.042 67.5972C228.042 68.8176 228.9 69.6758 230.635 69.6758ZM228.823 77.0555H232.389C233.381 77.0555 234.163 76.3309 234.163 75.4728C234.163 74.5003 233.514 73.871 232.695 73.871H228.823C227.946 73.871 227.222 74.5765 227.222 75.4728C227.222 76.4453 227.927 77.0555 228.823 77.0555ZM237.1 74.6719V64.6415H238.187L238.321 66.2242H238.454C239.312 64.8703 240.475 64.4127 241.887 64.4127C243.794 64.4127 245.071 65.2517 245.071 67.6735V74.6719H243.698V67.807C243.698 66.0335 242.745 65.6331 241.429 65.6331C239.903 65.6331 238.473 66.7963 238.473 68.7414V74.6719H237.1Z" fill="white"/>
</svg>
