<svg width="230" height="93" viewBox="0 0 230 93" fill="none" xmlns="http://www.w3.org/2000/svg">
<rect width="229.376" height="92.9904" rx="12.3987" fill="#1D1D1D"/>
<path fill-rule="evenodd" clip-rule="evenodd" d="M90.3388 65.847V67.0289H92.9882V68.1394H90.3388V70.2891H89.1172V64.7364H93.345V65.847H90.3388Z" fill="white"/>
<path fill-rule="evenodd" clip-rule="evenodd" d="M96.8332 70.377C95.3419 70.377 94.4297 69.544 94.4297 67.9101V64.7372H95.6513V67.8784C95.6513 68.7826 96.1035 69.2505 96.8491 69.2505C97.5947 69.2505 98.0468 68.7984 98.0468 67.9179V64.7372H99.2684V67.8704C99.2684 69.5521 98.3244 70.377 96.8332 70.377Z" fill="white"/>
<path fill-rule="evenodd" clip-rule="evenodd" d="M103.227 65.8629V70.2891H102.006V65.8629H100.316V64.7365H104.917V65.8629H103.227Z" fill="white"/>
<path fill-rule="evenodd" clip-rule="evenodd" d="M108.368 70.377C106.877 70.377 105.965 69.544 105.965 67.9101V64.7372H107.186V67.8784C107.186 68.7826 107.638 69.2505 108.384 69.2505C109.13 69.2505 109.582 68.7984 109.582 67.9179V64.7372H110.803V67.8704C110.803 69.5521 109.86 70.377 108.368 70.377Z" fill="white"/>
<path fill-rule="evenodd" clip-rule="evenodd" d="M115.641 66.6324C115.641 66.1088 115.276 65.8391 114.681 65.8391H113.468V67.4335H114.705C115.3 67.4335 115.641 67.1162 115.641 66.6482V66.6324ZM115.617 70.2891L114.427 68.5123H113.468V70.2891H112.246V64.7365H114.784C116.093 64.7365 116.878 65.4267 116.878 66.5689V66.5847C116.878 67.4812 116.395 68.0442 115.689 68.3061L117.045 70.2891H115.617Z" fill="white"/>
<path fill-rule="evenodd" clip-rule="evenodd" d="M122.558 67.5133C122.558 66.5613 121.86 65.7683 120.877 65.7683C119.893 65.7683 119.211 66.5456 119.211 67.4974V67.5133C119.211 68.4651 119.909 69.2584 120.892 69.2584C121.876 69.2584 122.558 68.4811 122.558 67.5292V67.5133ZM120.877 70.3848C119.163 70.3848 117.934 69.1077 117.934 67.5292V67.5133C117.934 65.9348 119.179 64.6419 120.892 64.6419C122.606 64.6419 123.835 65.919 123.835 67.4974V67.5133C123.835 69.0918 122.59 70.3848 120.877 70.3848Z" fill="white"/>
<path fill-rule="evenodd" clip-rule="evenodd" d="M127.396 65.8629V70.2891H126.174V65.8629H124.484V64.7365H129.085V65.8629H127.396Z" fill="white"/>
<path fill-rule="evenodd" clip-rule="evenodd" d="M130.215 70.2891V64.7365H134.403V65.8232H131.428V66.9496H134.046V68.0364H131.428V69.2024H134.443V70.2891H130.215Z" fill="white"/>
<path fill-rule="evenodd" clip-rule="evenodd" d="M138.332 70.3848C136.698 70.3848 135.484 69.1236 135.484 67.5292V67.5133C135.484 65.9348 136.674 64.642 138.38 64.642C139.427 64.642 140.053 64.9909 140.569 65.4985L139.792 66.3948C139.363 66.0062 138.927 65.7683 138.372 65.7683C137.436 65.7683 136.762 66.5456 136.762 67.4974V67.5133C136.762 68.4651 137.42 69.2584 138.372 69.2584C139.006 69.2584 139.395 69.0047 139.831 68.6079L140.609 69.3933C140.038 70.004 139.403 70.3848 138.332 70.3848Z" fill="white"/>
<path fill-rule="evenodd" clip-rule="evenodd" d="M101.939 74.03C102.616 74.1948 102.968 74.4374 102.968 74.9728C102.968 75.5767 102.497 75.9336 101.825 75.9336C101.335 75.9336 100.873 75.7645 100.488 75.4213L100.827 75.0184C101.133 75.2839 101.44 75.435 101.838 75.435C102.186 75.435 102.406 75.2748 102.406 75.0277C102.406 74.7943 102.278 74.6707 101.683 74.5334C101.001 74.3686 100.616 74.1674 100.616 73.5724C100.616 73.0143 101.074 72.6391 101.71 72.6391C102.177 72.6391 102.547 72.7809 102.872 73.0418L102.57 73.4673C102.282 73.2522 101.994 73.1378 101.701 73.1378C101.371 73.1378 101.179 73.3072 101.179 73.5221C101.179 73.7738 101.326 73.8837 101.939 74.03Z" fill="white"/>
<path fill-rule="evenodd" clip-rule="evenodd" d="M105.272 73.1474C104.636 73.1474 104.192 73.6553 104.192 74.2822C104.192 74.9091 104.645 75.4262 105.281 75.4262C105.917 75.4262 106.361 74.9184 106.361 74.2914C106.361 73.6646 105.908 73.1474 105.272 73.1474ZM105.272 75.9434C104.288 75.9434 103.602 75.1974 103.602 74.2914C103.602 73.3854 104.297 72.6303 105.281 72.6303C106.265 72.6303 106.951 73.3762 106.951 74.2822C106.951 75.1882 106.256 75.9434 105.272 75.9434Z" fill="white"/>
<path fill-rule="evenodd" clip-rule="evenodd" d="M107.75 72.6855H108.313V75.3762H109.997V75.8887H107.75V72.6855Z" fill="white"/>
<path fill-rule="evenodd" clip-rule="evenodd" d="M113.296 74.5006C113.296 75.4569 112.756 75.9375 111.918 75.9375C111.085 75.9375 110.555 75.4569 110.555 74.5281V72.684H111.117V74.5053C111.117 75.1 111.424 75.4205 111.927 75.4205C112.426 75.4205 112.733 75.1184 112.733 74.5281V72.684H113.296V74.5006Z" fill="white"/>
<path fill-rule="evenodd" clip-rule="evenodd" d="M115.54 75.8887H114.973V73.2072H113.957V72.6854H116.556V73.2072H115.54V75.8887Z" fill="white"/>
<path fill-rule="evenodd" clip-rule="evenodd" d="M117.856 75.8887H117.293V72.6855H117.856V75.8887Z" fill="white"/>
<path fill-rule="evenodd" clip-rule="evenodd" d="M120.358 73.1474C119.722 73.1474 119.278 73.6553 119.278 74.2822C119.278 74.9091 119.731 75.4262 120.367 75.4262C121.003 75.4262 121.447 74.9184 121.447 74.2914C121.447 73.6646 120.994 73.1474 120.358 73.1474ZM120.358 75.9434C119.374 75.9434 118.688 75.1974 118.688 74.2914C118.688 73.3854 119.383 72.6303 120.367 72.6303C121.351 72.6303 122.037 73.3762 122.037 74.2822C122.037 75.1882 121.342 75.9434 120.358 75.9434Z" fill="white"/>
<path fill-rule="evenodd" clip-rule="evenodd" d="M125.07 72.6855H125.623V75.8887H125.152L123.386 73.6098V75.8887H122.832V72.6855H123.354L125.07 74.9002V72.6855Z" fill="white"/>
<path fill-rule="evenodd" clip-rule="evenodd" d="M127.794 74.03C128.471 74.1948 128.824 74.4374 128.824 74.9728C128.824 75.5767 128.352 75.9336 127.68 75.9336C127.19 75.9336 126.728 75.7645 126.344 75.4213L126.682 75.0184C126.989 75.2839 127.295 75.435 127.694 75.435C128.041 75.435 128.261 75.2748 128.261 75.0277C128.261 74.7943 128.133 74.6707 127.538 74.5334C126.856 74.3686 126.472 74.1674 126.472 73.5724C126.472 73.0143 126.929 72.6391 127.565 72.6391C128.032 72.6391 128.403 72.7809 128.728 73.0418L128.426 73.4673C128.138 73.2522 127.849 73.1378 127.556 73.1378C127.227 73.1378 127.035 73.3072 127.035 73.5221C127.035 73.7738 127.181 73.8837 127.794 74.03Z" fill="white"/>
<path fill-rule="evenodd" clip-rule="evenodd" d="M111.046 38.5781C111.022 38.5781 110.999 38.5707 110.978 38.5563L102.334 32.3515C102.299 32.3267 102.281 32.285 102.286 32.2427C102.291 32.2005 102.319 32.1644 102.359 32.1487L107.7 30.0312C107.714 30.0256 107.729 30.0229 107.743 30.0229C107.765 30.0229 107.787 30.0291 107.806 30.0413L116.713 35.7299C116.749 35.7527 116.77 35.7931 116.767 35.8355C116.764 35.8778 116.739 35.9153 116.7 35.9333L111.096 38.567C111.08 38.5745 111.063 38.5781 111.046 38.5781Z" fill="#1B1918"/>
<path fill-rule="evenodd" clip-rule="evenodd" d="M107.747 29.9053C107.717 29.9053 107.688 29.9108 107.661 29.9217L102.319 32.0393C102.24 32.0706 102.184 32.1427 102.174 32.2273C102.163 32.3118 102.2 32.3953 102.269 32.4449L110.914 38.6496C110.954 38.6786 111.002 38.6934 111.05 38.6934C111.083 38.6934 111.117 38.686 111.149 38.6712L116.753 36.0375C116.83 36.0014 116.881 35.9265 116.886 35.8418C116.891 35.7572 116.851 35.6762 116.779 35.6306L107.872 29.942C107.834 29.9177 107.79 29.9053 107.747 29.9053ZM107.747 30.1382L116.654 35.8268L111.05 38.4605L102.405 32.2558L107.747 30.1382Z" fill="#1DABDD"/>
<path fill-rule="evenodd" clip-rule="evenodd" d="M102.502 44.1498L102.109 32.5333L111.13 39.1422V50.0859L102.502 44.1498Z" fill="#1B1918"/>
<path fill-rule="evenodd" clip-rule="evenodd" d="M101.988 32.2971L102.391 44.2118L111.249 50.3066V39.0825L101.988 32.2971ZM102.237 32.7682L111.017 39.2006V49.8638L102.62 44.0865L102.237 32.7682Z" fill="#1DABDD"/>
<path fill-rule="evenodd" clip-rule="evenodd" d="M116.65 36.033C116.616 36.033 116.581 36.0407 116.549 36.0562L111.143 38.6614C111.063 38.7002 111.012 38.7818 111.012 38.8712V49.742C111.012 49.8199 111.051 49.8926 111.116 49.9358L114.745 52.3516C114.784 52.3776 114.829 52.3906 114.874 52.3906C114.916 52.3906 114.958 52.3793 114.995 52.3566L116.597 51.3808C116.665 51.339 116.707 51.2649 116.708 51.1848L116.883 36.2686C116.884 36.188 116.843 36.1127 116.775 36.0694C116.737 36.0453 116.694 36.033 116.65 36.033ZM116.65 36.2659L116.476 51.182L114.874 52.1578L111.245 49.742V38.8712L116.65 36.2659Z" fill="#1DABDD"/>
<path d="M91.5039 32.7679V47.9261L114.862 62.875L138.219 47.9261V32.7679L114.862 17.0494L91.5039 32.7679Z" fill="url(#paint0_linear_28740_5)"/>
<path fill-rule="evenodd" clip-rule="evenodd" d="M129.245 37.6741C129.245 41.8366 125.871 45.2109 121.709 45.2109C117.546 45.2109 114.172 41.8366 114.172 37.6741C114.172 33.5117 117.546 30.1374 121.709 30.1374C125.871 30.1374 129.245 33.5117 129.245 37.6741Z" fill="#95BF0B"/>
<path fill-rule="evenodd" clip-rule="evenodd" d="M114.977 27.5915L132.618 40.3294L132.845 40.4933L132.612 40.6477L114.971 52.3393L114.864 52.4102L114.757 52.3393L97.1159 40.6477L96.8828 40.4933L97.1098 40.3294L114.751 27.5915L114.864 27.5099L114.977 27.5915Z" fill="#1B1918"/>
<path fill-rule="evenodd" clip-rule="evenodd" d="M102.012 32.0443L111.232 38.4375L116.643 35.8298L107.587 30.0627L102.012 32.0443Z" fill="#6E7071"/>
<path fill-rule="evenodd" clip-rule="evenodd" d="M116.462 50.5893L116.637 36.2712L111.227 38.8788V49.3776L114.874 51.6992L116.462 50.5893Z" fill="#3B3B3B"/>
<path fill-rule="evenodd" clip-rule="evenodd" d="M102.415 43.4449L111.232 49.377V38.4373L102.012 32.0441L102.415 43.4449Z" fill="#3B3B3B"/>
<path fill-rule="evenodd" clip-rule="evenodd" d="M102.012 32.0454L111.153 38.3834L116.555 35.8123L116.526 37.335L111.232 39.8496L102.078 33.6581L102.012 32.0454Z" fill="#009EE0"/>
<path fill-rule="evenodd" clip-rule="evenodd" d="M102.109 34.6976L111.229 40.6636L116.639 38.0559V39.4165L111.229 41.9863L102.171 36.0172L102.109 34.6976Z" fill="#009EE0"/>
<path fill-rule="evenodd" clip-rule="evenodd" d="M102.164 36.8663L111.228 42.8726L116.638 40.2649V41.6255L111.228 44.1953L102.224 38.3277L102.164 36.8663Z" fill="#009EE0"/>
<path fill-rule="evenodd" clip-rule="evenodd" d="M102.254 39.3556L111.231 45.0951L116.641 42.4875L116.545 43.8938L111.231 46.418L102.313 40.711L102.254 39.3556Z" fill="#009EE0"/>
<path fill-rule="evenodd" clip-rule="evenodd" d="M102.324 41.7886L111.233 47.328L116.527 44.7199V46.0805L111.233 48.6719L102.428 42.9417L102.324 41.7886Z" fill="#009EE0"/>
<path d="M114.156 37.6792C114.156 41.8453 117.534 45.2227 121.7 45.2227C125.866 45.2227 129.244 41.8453 129.244 37.6792C129.244 33.5129 125.866 30.1355 121.7 30.1355C117.534 30.1355 114.156 33.5129 114.156 37.6792Z" fill="url(#paint1_linear_28740_5)"/>
<path fill-rule="evenodd" clip-rule="evenodd" d="M129.359 37.6798C129.359 39.795 128.502 41.7101 127.116 43.0963C125.729 44.4824 123.814 45.3398 121.699 45.3398C119.584 45.3398 117.669 44.4824 116.283 43.0962C114.897 41.71 114.039 39.795 114.039 37.6798C114.039 35.5645 114.897 33.6495 116.283 32.2634C117.669 30.8772 119.584 30.0198 121.699 30.0198C123.814 30.0198 125.729 30.8771 127.116 32.2634C128.502 33.6495 129.359 35.5645 129.359 37.6798ZM126.951 42.9316C128.295 41.5876 129.126 39.7308 129.126 37.6798C129.126 35.6288 128.295 33.7719 126.951 32.4279C125.607 31.0839 123.75 30.2526 121.699 30.2526C119.648 30.2526 117.791 31.084 116.447 32.428C115.103 33.772 114.272 35.6288 114.272 37.6798C114.272 39.7308 115.103 41.5876 116.447 42.9316C117.791 44.2756 119.648 45.107 121.699 45.107C123.75 45.107 125.607 44.2756 126.951 42.9316Z" fill="white"/>
<path fill-rule="evenodd" clip-rule="evenodd" d="M121.07 37.5828C121.096 37.4987 121.112 37.4103 121.148 37.3312C121.296 37.009 121.65 36.8294 121.997 36.8937C122.345 36.9584 122.606 37.2456 122.636 37.5978C122.673 38.0162 122.371 38.3967 121.965 38.445C121.526 38.4974 121.144 38.2108 121.078 37.7798C121.077 37.7707 121.073 37.7621 121.07 37.7534V37.5828Z" fill="white"/>
<path fill-rule="evenodd" clip-rule="evenodd" d="M127.536 37.6761C127.514 39.2877 126.948 40.675 125.818 41.8288C125.626 42.0248 125.349 42.078 125.102 41.9714C124.859 41.8664 124.706 41.6235 124.717 41.3563C124.723 41.1882 124.789 41.0446 124.908 40.9251C125.202 40.6288 125.454 40.2998 125.658 39.9353C125.969 39.3814 126.161 38.7889 126.222 38.1565C126.339 36.9471 126.036 35.8527 125.304 34.8813C125.18 34.7167 125.035 34.5677 124.897 34.4139C124.735 34.2331 124.675 34.026 124.742 33.7913C124.875 33.3205 125.462 33.1655 125.808 33.5119C126.583 34.2889 127.106 35.2101 127.368 36.2771C127.481 36.7362 127.534 37.2026 127.536 37.6761Z" fill="white"/>
<path fill-rule="evenodd" clip-rule="evenodd" d="M125.217 37.6747C125.204 38.6543 124.862 39.4984 124.174 40.1989C123.999 40.3771 123.783 40.4349 123.543 40.3668C123.305 40.2993 123.153 40.1375 123.097 39.8965C123.045 39.6743 123.101 39.4744 123.26 39.3112C123.512 39.0539 123.709 38.7619 123.815 38.4183C124.087 37.537 123.917 36.7476 123.285 36.0717C123.069 35.8404 123.028 35.5383 123.152 35.3014C123.349 34.9225 123.858 34.8386 124.162 35.1403C124.65 35.6252 124.972 36.2046 125.127 36.8756C125.187 37.1382 125.216 37.4046 125.217 37.6747Z" fill="white"/>
<path fill-rule="evenodd" clip-rule="evenodd" d="M115.758 37.6761C115.78 39.2877 116.346 40.675 117.476 41.8288C117.668 42.0248 117.945 42.078 118.191 41.9714C118.434 41.8664 118.588 41.6235 118.577 41.3563C118.57 41.1882 118.504 41.0446 118.386 40.9251C118.091 40.6288 117.84 40.2998 117.635 39.9353C117.325 39.3814 117.133 38.7889 117.072 38.1565C116.955 36.9471 117.257 35.8527 117.989 34.8813C118.113 34.7167 118.258 34.5677 118.397 34.4139C118.559 34.2331 118.618 34.026 118.552 33.7913C118.419 33.3205 117.831 33.1655 117.485 33.5119C116.71 34.2889 116.188 35.2101 115.926 36.2771C115.813 36.7362 115.759 37.2026 115.758 37.6761Z" fill="white"/>
<path fill-rule="evenodd" clip-rule="evenodd" d="M118.074 37.6747C118.086 38.6543 118.429 39.4984 119.117 40.1989C119.292 40.3771 119.508 40.4349 119.748 40.3668C119.986 40.2993 120.138 40.1375 120.194 39.8965C120.246 39.6743 120.189 39.4744 120.03 39.3112C119.779 39.0539 119.582 38.7619 119.476 38.4183C119.204 37.537 119.373 36.7476 120.006 36.0717C120.222 35.8404 120.263 35.5383 120.139 35.3014C119.941 34.9225 119.432 34.8386 119.129 35.1403C118.641 35.6252 118.319 36.2046 118.164 36.8756C118.103 37.1382 118.074 37.4046 118.074 37.6747Z" fill="white"/>
<defs>
<linearGradient id="paint0_linear_28740_5" x1="138.219" y1="39.9622" x2="91.5039" y2="39.9622" gradientUnits="userSpaceOnUse">
<stop stop-color="#3B4795"/>
<stop offset="0.76" stop-color="#E3026B"/>
<stop offset="1" stop-color="#E5016A"/>
</linearGradient>
<linearGradient id="paint1_linear_28740_5" x1="129.244" y1="37.6791" x2="114.156" y2="37.6791" gradientUnits="userSpaceOnUse">
<stop stop-color="#3B4795"/>
<stop offset="0.76" stop-color="#E3026B"/>
<stop offset="1" stop-color="#E5016A"/>
</linearGradient>
</defs>
</svg>
