<svg width="120" height="39" viewBox="0 0 120 39" fill="none" xmlns="http://www.w3.org/2000/svg">
<path fill-rule="evenodd" clip-rule="evenodd" d="M16.6035 18.291C16.5831 18.291 16.563 18.2847 16.5458 18.2724L9.20135 13.001C9.17196 12.9799 9.1565 12.9445 9.16089 12.9085C9.16535 12.8726 9.18888 12.842 9.2226 12.8287L13.7609 11.0296C13.7726 11.0249 13.7849 11.0226 13.7973 11.0226C13.8159 11.0226 13.8344 11.0279 13.8505 11.0382L21.4181 15.8712C21.4485 15.8906 21.466 15.9249 21.4637 15.9609C21.4611 15.9969 21.4396 16.0287 21.4069 16.044L16.6456 18.2815C16.6322 18.2879 16.6178 18.291 16.6035 18.291Z" fill="#1B1918"/>
<path fill-rule="evenodd" clip-rule="evenodd" d="M13.7987 10.9205C13.774 10.9205 13.7492 10.9252 13.7257 10.9344L9.18746 12.7335C9.12016 12.7601 9.07283 12.8214 9.06399 12.8932C9.05514 12.965 9.08619 13.036 9.14503 13.0781L16.4895 18.3496C16.5237 18.3742 16.5642 18.3867 16.6049 18.3867C16.6335 18.3867 16.6622 18.3805 16.689 18.3679L21.4503 16.1304C21.5156 16.0997 21.559 16.036 21.5636 15.9641C21.568 15.8922 21.5334 15.8234 21.4727 15.7846L13.9051 10.9517C13.8729 10.9311 13.8358 10.9205 13.7987 10.9205ZM13.7987 11.1183L21.3662 15.9514L16.6049 18.1889L9.26036 12.9174L13.7987 11.1183Z" fill="#1DABDD"/>
<path fill-rule="evenodd" clip-rule="evenodd" d="M9.34153 23.0232L9.00781 13.154L16.6712 18.7688V28.0664L9.34153 23.0232Z" fill="#1B1918"/>
<path fill-rule="evenodd" clip-rule="evenodd" d="M8.90234 12.9552L9.24458 23.0777L16.7705 28.2559V18.72L8.90234 12.9552ZM9.11386 13.3554L16.5726 18.8203V27.8796L9.43898 22.9713L9.11386 13.3554Z" fill="#1DABDD"/>
<path fill-rule="evenodd" clip-rule="evenodd" d="M21.3645 16.1282C21.3353 16.1282 21.306 16.1348 21.2787 16.1479L16.6862 18.3613C16.6177 18.3942 16.5742 18.4636 16.5742 18.5395V27.7751C16.5742 27.8414 16.6073 27.9031 16.6624 27.9398L19.7461 29.9922C19.7792 30.0143 19.8175 30.0254 19.8557 30.0254C19.8913 30.0254 19.927 30.0158 19.9586 29.9964L21.3191 29.1674C21.3773 29.1319 21.4131 29.069 21.414 29.0009L21.5624 16.3283C21.563 16.2599 21.5286 16.1959 21.4708 16.1591C21.4385 16.1386 21.4016 16.1282 21.3645 16.1282ZM21.3646 16.326L21.2162 28.9985L19.8557 29.8275L16.7721 27.7751V18.5395L21.3646 16.326Z" fill="#1DABDD"/>
<path d="M0 13.3551V26.2332L19.8444 38.9336L39.6886 26.2332V13.3551L19.8444 0.000815321L0 13.3551Z" fill="url(#paint0_linear_29264_233)"/>
<path fill-rule="evenodd" clip-rule="evenodd" d="M32.0601 17.5226C32.0601 21.059 29.1933 23.9258 25.657 23.9258C22.1206 23.9258 19.2539 21.059 19.2539 17.5226C19.2539 13.9863 22.1206 11.1195 25.657 11.1195C29.1933 11.1195 32.0601 13.9863 32.0601 17.5226Z" fill="#95BF0B"/>
<path fill-rule="evenodd" clip-rule="evenodd" d="M19.9426 8.95737L34.9301 19.7793L35.1229 19.9186L34.925 20.0498L19.9374 29.9828L19.8466 30.043L19.7558 29.9828L4.76834 20.0498L4.57031 19.9186L4.76319 19.7793L19.7506 8.95737L19.8466 8.8881L19.9426 8.95737Z" fill="#1B1918"/>
<path fill-rule="evenodd" clip-rule="evenodd" d="M8.92578 12.7384L16.7594 18.1699L21.3561 15.9545L13.6623 11.0548L8.92578 12.7384Z" fill="#6E7071"/>
<path fill-rule="evenodd" clip-rule="evenodd" d="M21.206 28.4965L21.3545 16.332L16.7578 18.5474V27.467L19.8563 29.4395L21.206 28.4965Z" fill="#3B3B3B"/>
<path fill-rule="evenodd" clip-rule="evenodd" d="M9.26827 22.427L16.7595 27.4668V18.1726L8.92578 12.7411L9.26827 22.427Z" fill="#3B3B3B"/>
<path fill-rule="evenodd" clip-rule="evenodd" d="M8.92578 12.7388L16.6918 18.1235L21.2816 15.9391L21.2573 17.2328L16.7594 19.3691L8.98227 14.1089L8.92578 12.7388Z" fill="#009EE0"/>
<path fill-rule="evenodd" clip-rule="evenodd" d="M9.00781 14.9932L16.7557 20.0618L21.3524 17.8463V19.0022L16.7557 21.1855L9.06049 16.1142L9.00781 14.9932Z" fill="#009EE0"/>
<path fill-rule="evenodd" clip-rule="evenodd" d="M9.05469 16.8359L16.7551 21.9387L21.3518 19.7233V20.8792L16.7551 23.0625L9.10552 18.0775L9.05469 16.8359Z" fill="#009EE0"/>
<path fill-rule="evenodd" clip-rule="evenodd" d="M9.13281 18.9511L16.7595 23.8273L21.3561 21.6119L21.2744 22.8066L16.7595 24.9512L9.18281 20.1026L9.13281 18.9511Z" fill="#009EE0"/>
<path fill-rule="evenodd" clip-rule="evenodd" d="M9.19141 21.0192L16.7599 25.7255L21.2577 23.5097V24.6656L16.7599 26.8672L9.27932 21.9989L9.19141 21.0192Z" fill="#009EE0"/>
<path d="M19.2422 17.5248C19.2422 21.0643 22.1116 23.9336 25.6512 23.9336C29.1908 23.9336 32.0601 21.0643 32.0601 17.5248C32.0601 13.9851 29.1908 11.1157 25.6512 11.1157C22.1116 11.1157 19.2422 13.9851 19.2422 17.5248Z" fill="url(#paint1_linear_29264_233)"/>
<path fill-rule="evenodd" clip-rule="evenodd" d="M32.1603 17.5273C32.1603 19.3243 31.4319 20.9514 30.2541 22.1291C29.0765 23.3067 27.4495 24.0352 25.6524 24.0352C23.8554 24.0352 22.2284 23.3067 21.0507 22.129C19.873 20.9513 19.1445 19.3243 19.1445 17.5273C19.1445 15.7302 19.873 14.1032 21.0507 12.9256C22.2284 11.7479 23.8554 11.0195 25.6524 11.0195C27.4495 11.0195 29.0765 11.7478 30.2541 12.9256C31.4319 14.1032 32.1603 15.7302 32.1603 17.5273ZM30.1143 21.9892C31.2562 20.8473 31.9625 19.2698 31.9625 17.5273C31.9625 15.7848 31.2562 14.2072 30.1143 13.0654C28.9724 11.9235 27.3949 11.2173 25.6524 11.2173C23.91 11.2173 22.3324 11.9236 21.1906 13.0655C20.0487 14.2073 19.3424 15.7848 19.3424 17.5273C19.3424 19.2698 20.0487 20.8473 21.1906 21.9892C22.3324 23.131 23.91 23.8373 25.6524 23.8373C27.3949 23.8373 28.9724 23.131 30.1143 21.9892Z" fill="white"/>
<path fill-rule="evenodd" clip-rule="evenodd" d="M25.1211 17.4439C25.1427 17.3725 25.1563 17.2973 25.1872 17.2302C25.3127 16.9564 25.6133 16.8038 25.9081 16.8585C26.2042 16.9134 26.4259 17.1574 26.4517 17.4566C26.4824 17.8121 26.2264 18.1354 25.8816 18.1764C25.5083 18.2209 25.1838 17.9774 25.128 17.6113C25.1268 17.6036 25.1236 17.5962 25.1211 17.5888V17.4439Z" fill="white"/>
<path fill-rule="evenodd" clip-rule="evenodd" d="M30.6114 17.5236C30.5928 18.8929 30.112 20.0715 29.152 21.0517C28.9889 21.2183 28.7534 21.2634 28.5439 21.1729C28.3376 21.0837 28.207 20.8773 28.2164 20.6503C28.2221 20.5075 28.2781 20.3854 28.3788 20.284C28.6289 20.0322 28.8425 19.7527 29.0163 19.443C29.2802 18.9725 29.4435 18.4691 29.4953 17.9318C29.5945 16.9043 29.3374 15.9745 28.7158 15.1493C28.6103 15.0094 28.487 14.8828 28.3696 14.7521C28.2316 14.5986 28.1812 14.4226 28.2375 14.2232C28.3506 13.8232 28.85 13.6915 29.1437 13.9858C29.8024 14.6459 30.2462 15.4286 30.4689 16.3351C30.5647 16.7251 30.61 17.1214 30.6114 17.5236Z" fill="white"/>
<path fill-rule="evenodd" clip-rule="evenodd" d="M28.641 17.5232C28.6306 18.3555 28.3394 19.0727 27.7551 19.6678C27.6065 19.8192 27.423 19.8683 27.2193 19.8104C27.0171 19.7531 26.888 19.6157 26.8401 19.4108C26.796 19.2221 26.8439 19.0522 26.9789 18.9136C27.1924 18.695 27.3602 18.447 27.4502 18.155C27.681 17.4062 27.5372 16.7356 27.0001 16.1613C26.8162 15.9648 26.7817 15.7082 26.8866 15.5069C27.0546 15.185 27.487 15.1138 27.745 15.3701C28.1597 15.7821 28.4333 16.2742 28.5648 16.8443C28.6162 17.0674 28.6408 17.2938 28.641 17.5232Z" fill="white"/>
<path fill-rule="evenodd" clip-rule="evenodd" d="M20.6055 17.5236C20.6241 18.8929 21.1048 20.0715 22.065 21.0517C22.2281 21.2183 22.4635 21.2634 22.6729 21.1729C22.8793 21.0837 23.0099 20.8773 23.0004 20.6503C22.9947 20.5075 22.9387 20.3854 22.838 20.284C22.588 20.0322 22.3744 19.7527 22.2006 19.443C21.9367 18.9725 21.7734 18.4691 21.7216 17.9318C21.6223 16.9043 21.8795 15.9745 22.5011 15.1493C22.6066 15.0094 22.7299 14.8828 22.8473 14.7521C22.9853 14.5986 23.0357 14.4226 22.9793 14.2232C22.8664 13.8232 22.3669 13.6915 22.0732 13.9858C21.4145 14.6459 20.9707 15.4286 20.748 16.3351C20.6522 16.7251 20.6069 17.1214 20.6055 17.5236Z" fill="white"/>
<path fill-rule="evenodd" clip-rule="evenodd" d="M22.5742 17.5232C22.5846 18.3555 22.8758 19.0727 23.4601 19.6678C23.6087 19.8192 23.7922 19.8683 23.996 19.8104C24.1981 19.7531 24.3272 19.6157 24.3751 19.4108C24.4191 19.2221 24.3713 19.0522 24.2362 18.9136C24.0229 18.695 23.855 18.447 23.765 18.155C23.5341 17.4062 23.678 16.7356 24.2152 16.1613C24.399 15.9648 24.4334 15.7082 24.3286 15.5069C24.1606 15.185 23.7282 15.1138 23.4701 15.3701C23.0555 15.7821 22.7819 16.2742 22.6504 16.8443C22.599 17.0674 22.5743 17.2938 22.5742 17.5232Z" fill="white"/>
<path fill-rule="evenodd" clip-rule="evenodd" d="M48.0225 13.1007V14.793H51.816V16.383H48.0225V19.4609H46.2734V11.5106H52.327V13.1007H48.0225Z" fill="black"/>
<path fill-rule="evenodd" clip-rule="evenodd" d="M57.3242 19.5859C55.1889 19.5859 53.8828 18.3934 53.8828 16.0539V11.5108H55.6319V16.0084C55.6319 17.303 56.2794 17.9731 57.3469 17.9731C58.4145 17.9731 59.0618 17.3258 59.0618 16.065V11.5108H60.8111V15.997C60.8111 18.4048 59.4594 19.5859 57.3242 19.5859Z" fill="black"/>
<path fill-rule="evenodd" clip-rule="evenodd" d="M66.4806 13.1235V19.4609H64.7317V13.1235H62.3125V11.5107H68.8997V13.1235H66.4806Z" fill="black"/>
<path fill-rule="evenodd" clip-rule="evenodd" d="M73.8397 19.5859C71.7046 19.5859 70.3984 18.3934 70.3984 16.0539V11.5108H72.1474V16.0084C72.1474 17.303 72.7948 17.9731 73.8624 17.9731C74.9299 17.9731 75.5776 17.3258 75.5776 16.065V11.5108H77.3265V15.997C77.3265 18.4048 75.9751 19.5859 73.8397 19.5859Z" fill="black"/>
<path fill-rule="evenodd" clip-rule="evenodd" d="M84.2516 14.2253C84.2516 13.4756 83.7293 13.0894 82.8774 13.0894H81.1395V15.3722H82.9115C83.7631 15.3722 84.2516 14.918 84.2516 14.2479V14.2253ZM84.2174 19.4609L82.5139 16.917H81.1395V19.4609H79.3906V11.5107H83.025C84.8989 11.5107 86.0233 12.4989 86.0233 14.1344V14.157C86.0233 15.4406 85.3305 16.2467 84.3196 16.6217L86.2618 19.4609H84.2174Z" fill="black"/>
<path fill-rule="evenodd" clip-rule="evenodd" d="M94.1528 15.4862C94.1528 14.1232 93.1533 12.9877 91.7451 12.9877C90.3367 12.9877 89.36 14.1006 89.36 15.4635V15.4862C89.36 16.849 90.3595 17.9849 91.7676 17.9849C93.1762 17.9849 94.1528 16.8719 94.1528 15.5089V15.4862ZM91.7451 19.5977C89.2918 19.5977 87.5312 17.7691 87.5312 15.5089V15.4862C87.5312 13.2261 89.3144 11.3749 91.7676 11.3749C94.2207 11.3749 95.9812 13.2034 95.9812 15.4635V15.4862C95.9812 17.7464 94.1982 19.5977 91.7451 19.5977Z" fill="black"/>
<path fill-rule="evenodd" clip-rule="evenodd" d="M101.082 13.1235V19.4609H99.3335V13.1235H96.9141V11.5107H103.502V13.1235H101.082Z" fill="black"/>
<path fill-rule="evenodd" clip-rule="evenodd" d="M105.121 19.4609V11.5107H111.118V13.0666H106.859V14.6794H110.607V16.2355H106.859V17.905H111.175V19.4609H105.121Z" fill="black"/>
<path fill-rule="evenodd" clip-rule="evenodd" d="M116.742 19.5977C114.402 19.5977 112.664 17.7918 112.664 15.5089V15.4862C112.664 13.2261 114.368 11.375 116.81 11.375C118.309 11.375 119.206 11.8746 119.944 12.6014L118.831 13.8847C118.218 13.3283 117.593 12.9877 116.798 12.9877C115.458 12.9877 114.493 14.1006 114.493 15.4635V15.4862C114.493 16.849 115.435 17.9849 116.798 17.9849C117.707 17.9849 118.264 17.6216 118.888 17.0535L120.001 18.1781C119.183 19.0525 118.275 19.5977 116.742 19.5977Z" fill="black"/>
<path fill-rule="evenodd" clip-rule="evenodd" d="M64.6317 24.8174C65.6013 25.0534 66.1059 25.4006 66.1059 26.1673C66.1059 27.032 65.4309 27.543 64.4679 27.543C63.7668 27.543 63.1051 27.3009 62.5547 26.8095L63.0395 26.2326C63.4785 26.6127 63.9175 26.8291 64.4876 26.8291C64.9855 26.8291 65.2999 26.5996 65.2999 26.246C65.2999 25.9117 65.1165 25.7348 64.2648 25.5382C63.2885 25.3022 62.7381 25.0141 62.7381 24.1622C62.7381 23.3631 63.3933 22.8258 64.3041 22.8258C64.9722 22.8258 65.503 23.0288 65.9683 23.4024L65.5358 24.0117C65.123 23.7037 64.7103 23.5399 64.2909 23.5399C63.8192 23.5399 63.544 23.7824 63.544 24.0901C63.544 24.4505 63.7537 24.6078 64.6317 24.8174Z" fill="black"/>
<path fill-rule="evenodd" clip-rule="evenodd" d="M69.4071 23.5533C68.4965 23.5533 67.8609 24.2806 67.8609 25.1782C67.8609 26.0758 68.5096 26.8161 69.4201 26.8161C70.3309 26.8161 70.9666 26.0891 70.9666 25.1913C70.9666 24.2939 70.3178 23.5533 69.4071 23.5533ZM69.4071 27.5566C67.9984 27.5566 67.0156 26.4885 67.0156 25.1913C67.0156 23.8941 68.0115 22.813 69.4201 22.813C70.8288 22.813 71.8116 23.8809 71.8116 25.1782C71.8116 26.4754 70.8158 27.5566 69.4071 27.5566Z" fill="black"/>
<path fill-rule="evenodd" clip-rule="evenodd" d="M72.9531 22.8921H73.759V26.7448H76.17V27.4785H72.9531V22.8921Z" fill="black"/>
<path fill-rule="evenodd" clip-rule="evenodd" d="M80.8892 25.4894C80.8892 26.8587 80.1165 27.5469 78.9173 27.5469C77.7248 27.5469 76.9648 26.8587 76.9648 25.5289V22.8884H77.7706V25.4962C77.7706 26.3478 78.2095 26.8066 78.9303 26.8066C79.6446 26.8066 80.0835 26.374 80.0835 25.5289V22.8884H80.8892V25.4894Z" fill="black"/>
<path fill-rule="evenodd" clip-rule="evenodd" d="M84.1027 27.4785H83.2902V23.6391H81.8359V22.892H85.5574V23.6391H84.1027V27.4785Z" fill="black"/>
<path fill-rule="evenodd" clip-rule="evenodd" d="M87.4268 27.4785H86.6211V22.8921H87.4268V27.4785Z" fill="black"/>
<path fill-rule="evenodd" clip-rule="evenodd" d="M91.0049 23.5533C90.0941 23.5533 89.4586 24.2806 89.4586 25.1782C89.4586 26.0758 90.1072 26.8161 91.0179 26.8161C91.9287 26.8161 92.5641 26.0891 92.5641 25.1913C92.5641 24.2939 91.9155 23.5533 91.0049 23.5533ZM91.0049 27.5566C89.5961 27.5566 88.6133 26.4885 88.6133 25.1913C88.6133 23.8941 89.6093 22.813 91.0179 22.813C92.4267 22.813 93.4095 23.8809 93.4095 25.1782C93.4095 26.4754 92.4135 27.5566 91.0049 27.5566Z" fill="black"/>
<path fill-rule="evenodd" clip-rule="evenodd" d="M97.7506 22.8921H98.5435V27.4785H97.8686L95.3397 24.2155V27.4785H94.5469V22.8921H95.2939L97.7506 26.0633V22.8921Z" fill="black"/>
<path fill-rule="evenodd" clip-rule="evenodd" d="M101.655 24.8174C102.625 25.0534 103.129 25.4006 103.129 26.1673C103.129 27.032 102.454 27.543 101.491 27.543C100.79 27.543 100.128 27.3009 99.5781 26.8095L100.063 26.2326C100.502 26.6127 100.941 26.8291 101.511 26.8291C102.009 26.8291 102.323 26.5996 102.323 26.246C102.323 25.9117 102.14 25.7348 101.288 25.5382C100.312 25.3022 99.7616 25.0141 99.7616 24.1622C99.7616 23.3631 100.417 22.8258 101.327 22.8258C101.996 22.8258 102.526 23.0288 102.991 23.4024L102.559 24.0117C102.147 23.7037 101.734 23.5399 101.314 23.5399C100.843 23.5399 100.567 23.7824 100.567 24.0901C100.567 24.4505 100.777 24.6078 101.655 24.8174Z" fill="black"/>
<defs>
<linearGradient id="paint0_linear_29264_233" x1="39.6886" y1="19.4672" x2="0" y2="19.4672" gradientUnits="userSpaceOnUse">
<stop stop-color="#3B4795"/>
<stop offset="0.76" stop-color="#E3026B"/>
<stop offset="1" stop-color="#E5016A"/>
</linearGradient>
<linearGradient id="paint1_linear_29264_233" x1="32.0601" y1="17.5247" x2="19.2422" y2="17.5247" gradientUnits="userSpaceOnUse">
<stop stop-color="#3B4795"/>
<stop offset="0.76" stop-color="#E3026B"/>
<stop offset="1" stop-color="#E5016A"/>
</linearGradient>
</defs>
</svg>
