<svg width="296" height="120" viewBox="0 0 296 120" fill="none" xmlns="http://www.w3.org/2000/svg">
<path d="M113.386 30.0537C123.161 29.1687 129.905 39.3921 126.88 48.4096C125.721 51.821 123.263 54.6376 120.04 56.2477C113.922 59.29 109.226 57.4797 106.347 51.364C106.521 58.5699 106.395 66.2832 106.362 73.5133C107.476 73.459 108.747 73.4667 109.874 73.4478C111.221 73.429 116.722 73.1129 117.432 73.8731L117.24 74.2409C115.646 74.7262 103.683 74.4825 101.16 74.4833L101.17 30.6764C102.837 30.6843 104.613 30.7236 106.27 30.6458C106.266 32.511 106.225 34.376 106.15 36.2398C108.6 32.8267 108.62 31.0597 113.386 30.0537Z" fill="black"/>
<path d="M113.273 30.812C123.235 30.0037 121.605 42.0917 121.364 48.5935C121.204 52.9116 119.612 56.1713 115.053 56.8414C104.609 56.806 105.226 41.3039 108.172 34.5484C109.023 32.5975 111.275 31.3541 113.273 30.812Z" fill="#F0F0E5"/>
<path d="M80.2712 30.1125C87.828 29.2749 94.6367 34.7122 95.4918 42.2669C96.347 49.8217 90.9256 56.6432 83.3729 57.5156C75.7953 58.3911 68.9465 52.948 68.0887 45.3685C67.2309 37.789 72.6898 30.953 80.2712 30.1125Z" fill="black"/>
<path d="M80.3803 30.8173C85.7895 30.5499 88.7908 32.896 89.5131 38.4482C90.1399 43.268 90.3016 49.8493 87.6837 54.131C86.7041 55.7333 84.7094 56.4321 82.9397 56.732C78.5885 57.1901 75.5494 55.344 74.4791 50.9684C73.2493 45.9407 73.0516 39.0854 75.4235 34.3303C76.4413 32.2898 78.3001 31.3534 80.3803 30.8173Z" fill="#F0F0E5"/>
<path d="M187.358 62.4239C187.984 62.3592 188.704 62.4523 189.331 62.5444C196.159 63.5469 198.716 68.0533 199.424 74.3132C193.374 74.2541 186.736 74.3324 180.682 74.4423C180.655 75.3207 180.645 76.1997 180.655 77.0785C180.722 80.3392 180.89 85.2398 183.516 87.4372C187.493 90.7672 193.108 89.1209 196.263 85.6952C197.066 84.5829 197.389 83.2323 198.26 82.2636L198.558 82.3393C198.695 83.1807 197.663 85.2194 197.122 85.9297C195.393 88.1039 193.503 89.4169 190.686 89.8135C182.721 90.9345 175.461 86.399 174.553 78.1011C174.143 74.3644 175.257 71.0107 177.452 68.0275C179.812 64.8192 183.475 62.97 187.358 62.4239Z" fill="black"/>
<path d="M186.404 63.3418C186.787 63.3133 187.172 63.2974 187.555 63.2939C193.592 63.21 193.398 68.8517 193.363 73.246C192.014 73.1632 189.763 73.2537 188.347 73.2653C185.823 73.2345 183.299 73.2483 180.777 73.3067C181.128 69.0138 181.561 64.7442 186.404 63.3418Z" fill="#F0F0E5"/>
<path d="M215.992 62.4163C218.2 62.1595 222.154 63.4188 223.883 64.8957C226.994 67.5525 227.797 70.5036 228.262 74.3011C222.406 74.2804 215.338 74.2228 209.543 74.4544C209.509 76.8819 209.497 79.1509 209.643 81.5861C210.159 90.1047 220.487 91.6847 225.182 85.4761C225.889 84.5091 226.551 82.6896 227.594 81.2207C226.747 85.6742 224.555 89.0012 219.709 89.7853C215.836 90.4121 211.84 89.6775 208.619 87.3644C205.87 85.3848 204.026 82.3875 203.499 79.0403C202.159 70.6803 207.77 63.7147 215.992 62.4163Z" fill="black"/>
<path d="M214.993 63.3605C222.514 62.9226 221.94 67.2555 221.871 73.182L216.571 73.2343C214.222 73.248 211.872 73.237 209.523 73.201C209.543 68.9638 210.684 65.0159 214.993 63.3605Z" fill="#F0F0E5"/>
<path d="M133.219 62.4185C135.565 62.2581 139.213 63.3105 140.993 64.8488C144.87 68.2004 144.706 69.9676 145.277 74.3182C139.153 74.2086 132.728 74.4056 126.557 74.389C126.486 78.628 126.224 85.2294 130.153 87.8651C134.006 90.4507 139.873 89.101 142.481 85.3626C143.244 84.1702 143.348 82.7314 144.546 82.1373L144.794 82.2228C144.8 82.8783 144.47 83.46 144.185 84.0383C142.626 87.21 140.365 89.23 136.777 89.7954C129.462 90.8778 122.084 86.9685 120.852 79.2735C119.492 70.782 124.687 63.6973 133.219 62.4185Z" fill="black"/>
<path d="M132.198 63.3609C139.473 62.8069 139.338 67.5057 139.242 73.179C137.57 73.2618 135.812 73.2539 134.132 73.272C131.611 73.2557 129.091 73.2711 126.57 73.3182C127.449 68.7686 127.14 65.391 132.198 63.3609Z" fill="#F0F0E5"/>
<path d="M151.06 63.3243C155.772 63.3636 160.477 63.2717 165.198 63.3493L169.987 63.3164C165.208 71.7021 160.066 79.8401 155.202 88.1754C158.113 88.1777 163.371 88.3192 166.055 87.9066C169.587 85.3956 169.296 82.4849 170.454 81.4306C170.68 82.3898 169.84 88.0622 169.642 89.3319C163.401 89.2569 154.718 89.0594 148.555 89.3314C149.692 87.8585 150.735 86.0218 151.687 84.4069C155.646 77.684 159.792 71.0541 163.722 64.3159C154.548 64.1417 154.003 62.591 149.957 71.1646C150.025 69.1152 150.906 66.0854 151.06 63.3243Z" fill="black"/>
</svg>
