<svg width="230" height="93" viewBox="0 0 230 93" fill="none" xmlns="http://www.w3.org/2000/svg">
<rect width="229.376" height="92.9904" rx="12.3987" fill="#1D1D1D"/>
<path d="M87.8649 23.2896C95.4392 22.6039 100.666 30.5262 98.3216 37.514C97.4234 40.1576 95.5187 42.3402 93.0211 43.5879C88.2804 45.9455 84.6407 44.5426 82.4097 39.8034C82.545 45.3874 82.4475 51.3646 82.4214 56.9673C83.2851 56.9253 84.2695 56.9312 85.1431 56.9166C86.1867 56.902 90.45 56.6571 91.0002 57.2461L90.8512 57.5312C89.6158 57.9073 80.3454 57.7184 78.3906 57.719L78.3979 23.7722C79.6902 23.7783 81.0662 23.8088 82.3504 23.7485C82.3469 25.1939 82.3157 26.6391 82.2571 28.0834C84.1557 25.4385 84.1712 24.0692 87.8649 23.2896Z" fill="white"/>
<path d="M87.7778 23.8776C95.4975 23.2512 94.2343 32.6184 94.0477 37.6568C93.9235 41.003 92.6905 43.529 89.1571 44.0482C81.0638 44.0208 81.5424 32.008 83.8252 26.7729C84.4846 25.2612 86.2296 24.2976 87.7778 23.8776Z" fill="#131313"/>
<path d="M62.2006 23.3355C68.0565 22.6864 73.3327 26.8999 73.9954 32.7542C74.658 38.6086 70.4569 43.8946 64.6041 44.5707C58.7321 45.2492 53.4249 41.0312 52.7602 35.1577C52.0954 29.2842 56.3256 23.9868 62.2006 23.3355Z" fill="white"/>
<path d="M62.2885 23.8811C66.4802 23.6739 68.806 25.4919 69.3657 29.7944C69.8514 33.5293 69.9768 38.6294 67.9481 41.9473C67.189 43.1889 65.6432 43.7304 64.2718 43.9629C60.9 44.3179 58.5449 42.8873 57.7155 39.4965C56.7626 35.6005 56.6094 30.2882 58.4474 26.6034C59.2361 25.0221 60.6765 24.2965 62.2885 23.8811Z" fill="#131313"/>
<path d="M145.187 48.3741C145.672 48.324 146.23 48.3962 146.716 48.4675C152.008 49.2444 153.989 52.7364 154.538 57.5874C149.849 57.5416 144.706 57.6023 140.014 57.6875C139.993 58.3681 139.986 59.0493 139.993 59.7303C140.045 62.257 140.175 66.0546 142.21 67.7574C145.292 70.3379 149.643 69.0621 152.088 66.4075C152.71 65.5456 152.961 64.499 153.635 63.7483L153.866 63.8069C153.972 64.459 153.173 66.0388 152.754 66.5892C151.414 68.274 149.949 69.2916 147.767 69.5989C141.594 70.4675 135.968 66.9529 135.264 60.5227C134.946 57.627 135.81 55.0282 137.511 52.7165C139.34 50.2303 142.178 48.7973 145.187 48.3741Z" fill="white"/>
<path d="M144.446 49.0867C144.743 49.0646 145.042 49.0522 145.338 49.0495C150.017 48.9845 149.866 53.3564 149.839 56.7616C148.793 56.6975 147.049 56.7676 145.952 56.7766C143.996 56.7527 142.04 56.7634 140.086 56.8086C140.357 53.482 140.693 50.1734 144.446 49.0867Z" fill="#131313"/>
<path d="M167.374 48.3677C169.085 48.1687 172.149 49.1446 173.489 50.2891C175.899 52.3479 176.521 54.6348 176.882 57.5776C172.344 57.5614 166.867 57.5168 162.376 57.6963C162.35 59.5774 162.341 61.3357 162.454 63.2228C162.854 69.824 170.857 71.0484 174.496 66.2372C175.043 65.4879 175.556 64.0779 176.365 62.9397C175.708 66.3907 174.009 68.9689 170.254 69.5765C167.253 70.0622 164.156 69.493 161.66 67.7005C159.53 66.1665 158.101 63.8438 157.692 61.25C156.654 54.7717 161.003 49.3739 167.374 48.3677Z" fill="white"/>
<path d="M166.601 49.0998C172.43 48.7604 171.985 52.1181 171.931 56.7106L167.825 56.7512C166.005 56.7618 164.183 56.7533 162.363 56.7254C162.378 53.4419 163.263 50.3825 166.601 49.0998Z" fill="#131313"/>
<path d="M103.234 48.3699C105.052 48.2456 107.88 49.0612 109.259 50.2533C112.264 52.8504 112.136 54.2199 112.579 57.5912C107.833 57.5063 102.854 57.659 98.0723 57.6461C98.0171 60.931 97.8141 66.0465 100.858 68.089C103.845 70.0926 108.391 69.0468 110.412 66.1498C111.003 65.2258 111.084 64.1108 112.012 63.6505L112.204 63.7167C112.209 64.2246 111.953 64.6754 111.733 65.1236C110.524 67.5814 108.772 69.1467 105.992 69.5848C100.323 70.4236 94.6057 67.3942 93.6512 61.4312C92.5977 54.851 96.6229 49.3609 103.234 48.3699Z" fill="white"/>
<path d="M102.443 49.1009C108.081 48.6715 107.976 52.3128 107.901 56.7091C106.606 56.7733 105.244 56.7672 103.942 56.7812C101.989 56.7685 100.035 56.7805 98.082 56.817C98.7629 53.2914 98.5231 50.6741 102.443 49.1009Z" fill="#131313"/>
<path d="M117.059 49.0725C120.71 49.1029 124.356 49.0318 128.015 49.0919L131.726 49.0664C128.022 55.5647 124.037 61.8709 120.268 68.3301C122.524 68.3319 126.598 68.4415 128.678 68.1219C131.416 66.176 131.19 63.9205 132.088 63.1034C132.263 63.8468 131.611 68.2424 131.458 69.2264C126.622 69.1682 119.893 69.0151 115.117 69.2259C115.999 68.0846 116.807 66.6613 117.544 65.4098C120.613 60.2002 123.825 55.0625 126.871 49.8409C119.761 49.7059 119.339 48.5043 116.203 55.1482C116.257 53.56 116.939 51.2121 117.059 49.0725Z" fill="white"/>
</svg>
